<svg width="291" height="241" viewBox="0 0 291 241" fill="none" xmlns="http://www.w3.org/2000/svg">
<g clip-path="url(#clip0_73_5)">
<rect width="291" height="241" rx="20" fill="white"/>
<rect width="291" height="241" rx="20" fill="url(#paint0_linear_73_5)"/>
<path d="M175.909 231.296C166.385 222.736 163.606 204.768 167.573 191.744C174.447 199.952 183.979 202.56 193.848 204.024C209.082 206.288 224.042 205.44 238.192 198.6C239.814 197.816 241.307 196.768 243.074 195.72C244.407 199.504 244.752 203.32 244.287 207.216C243.162 216.696 238.36 224.016 230.732 229.568C227.68 231.784 224.452 233.768 221.296 235.864C211.619 242.296 209.002 249.84 212.639 260.816L212.993 262C208.363 260.02 204.43 256.711 201.694 252.496C198.844 248.185 197.326 243.137 197.325 237.976C197.293 235.416 197.293 232.84 196.94 230.312C196.089 224.16 193.15 221.408 187.617 221.248C181.939 221.088 177.442 224.536 176.254 229.968C176.158 230.392 176.029 230.8 175.893 231.288L175.909 231.296ZM128.04 195.736C128.04 195.736 154.058 183.136 180.157 183.136L199.839 122.616C200.578 119.688 202.73 117.704 205.155 117.704C207.58 117.704 209.732 119.688 210.471 122.616L230.145 183.136C261.062 183.136 282.27 195.736 282.27 195.736L237.983 75.816C236.714 72.28 234.57 70 231.679 70H178.631C175.74 70 173.692 72.28 172.335 75.816L128.04 195.736Z" fill="#7A7A7A"/>
</g>
<defs>
<linearGradient id="paint0_linear_73_5" x1="12.5" y1="241" x2="281" y2="-4.56611e-06" gradientUnits="userSpaceOnUse">
<stop stop-color="#D9D9D9"/>
<stop offset="1" stop-color="#818181"/>
</linearGradient>
<clipPath id="clip0_73_5">
<rect width="291" height="241" rx="20" fill="white"/>
</clipPath>
</defs>
</svg>
