<svg width="291" height="241" viewBox="0 0 291 241" fill="none" xmlns="http://www.w3.org/2000/svg">
<g clip-path="url(#clip0_75_6)">
<rect width="291" height="241" rx="20" fill="white"/>
<rect width="291" height="241" rx="20" fill="url(#paint0_linear_75_6)"/>
<path d="M219.663 60.7251L103.518 114.525C95.5331 118.223 92.0988 127.749 95.7975 135.734L156.249 266.431L171.836 223.944L273.462 176.87C281.447 173.171 284.954 163.612 281.256 155.627L240.906 68.5182C237.207 60.5333 227.648 57.0263 219.663 60.7251ZM172.904 188.183L158.386 194.908L151.661 180.39L166.179 173.665L172.904 188.183ZM162.817 166.406L148.298 173.131L141.573 158.613L156.092 151.888L162.817 166.406ZM152.729 144.629L138.211 151.354L131.486 136.836L146.004 130.111L152.729 144.629ZM223.717 164.646L187.422 181.458L180.697 166.94L216.992 150.128L223.717 164.646ZM235.407 132.781L177.335 159.681L170.61 145.163L228.682 118.263L235.407 132.781ZM225.32 111.004L167.247 137.904L160.522 123.386L218.595 96.4862L225.32 111.004Z" fill="url(#paint1_linear_75_6)" fill-opacity="0.2"/>
</g>
<defs>
<linearGradient id="paint0_linear_75_6" x1="12.5" y1="241" x2="281" y2="-4.56611e-06" gradientUnits="userSpaceOnUse">
<stop/>
<stop offset="1" stop-color="#818181"/>
</linearGradient>
<linearGradient id="paint1_linear_75_6" x1="141" y1="219.5" x2="232.5" y2="84" gradientUnits="userSpaceOnUse">
<stop offset="0.099891" stop-color="#686868"/>
<stop offset="0.97" stop-color="#CECECE"/>
</linearGradient>
<clipPath id="clip0_75_6">
<rect width="291" height="241" rx="20" fill="white"/>
</clipPath>
</defs>
</svg>
