<svg width="22" height="23" viewBox="0 0 22 23" fill="none" xmlns="http://www.w3.org/2000/svg">
<g clip-path="url(#clip0_22_6)">
<path d="M16.591 21.6125C16.4054 21.6683 16.2098 21.6827 16.018 21.6546C15.8262 21.6265 15.6429 21.5566 15.4811 21.4499C15.3539 21.3661 15.2417 21.2613 15.1494 21.14L10.8199 15.5992C10.777 15.5443 10.7524 15.4773 10.7495 15.4076C10.7467 15.3379 10.7658 15.2691 10.8041 15.2109L14.1143 10.1786C14.1647 10.1023 14.1989 10.0166 14.2147 9.92656C14.2305 9.83656 14.2277 9.74426 14.2064 9.65541C14.185 9.56655 14.1456 9.48302 14.0907 9.41002C14.0357 9.33702 13.9663 9.2761 13.8868 9.23105C13.7353 9.14947 13.5585 9.12815 13.392 9.17134C13.2254 9.21453 13.0813 9.31905 12.9885 9.46397L9.69161 14.4761C9.6533 14.5343 9.59767 14.5791 9.53257 14.6041C9.46747 14.6291 9.39617 14.633 9.32871 14.6153L2.52651 12.8337C2.26363 12.7683 2.02692 12.6243 1.8479 12.421C1.66888 12.2177 1.55603 11.9647 1.5244 11.6956C1.49277 11.4266 1.54384 11.1543 1.67083 10.915C1.79781 10.6757 1.99468 10.4808 2.23521 10.3562L16.6091 3.0561C16.8193 2.94759 17.0546 2.89697 17.2908 2.90942C17.5271 2.92188 17.7557 2.99696 17.9534 3.12696C18.151 3.25696 18.3105 3.43721 18.4155 3.6492C18.5205 3.86119 18.5671 4.09729 18.5507 4.33327L17.5432 20.4227C17.5264 20.6949 17.4259 20.9554 17.2555 21.1683C17.085 21.3813 16.853 21.5364 16.591 21.6125Z" fill="black"/>
</g>
<defs>
<clipPath id="clip0_22_6">
<rect width="22" height="23" fill="white"/>
</clipPath>
</defs>
</svg>
