<svg width="204" height="204" viewBox="0 0 204 204" fill="none" xmlns="http://www.w3.org/2000/svg">
<path d="M203.54 130.084C197.08 151.174 184.133 169.689 166.54 182.994C151.095 194.619 132.716 201.709 113.465 203.468C94.2139 205.227 74.8538 201.586 57.5573 192.953C40.2609 184.321 25.7128 171.038 15.5459 154.597C5.379 138.155 -0.00420245 119.205 0.000479118 99.8743C-0.0682857 77.3109 7.26674 55.348 20.8805 37.3542C34.1859 19.7622 52.7008 6.8147 73.7905 0.354249C75.1805 -0.073748 76.6608 -0.114732 78.0723 0.235705C79.4839 0.586143 80.7732 1.31474 81.8016 2.34315C82.83 3.37155 83.5586 4.66085 83.909 6.07238C84.2595 7.48391 84.2185 8.96427 83.7905 10.3542C79.1789 25.6085 78.7922 41.8282 82.6717 57.2849C86.5512 72.7416 94.5514 86.8562 105.82 98.1248C117.089 109.393 131.203 117.394 146.66 121.273C162.117 125.152 178.336 124.766 193.59 120.154C194.98 119.726 196.461 119.685 197.872 120.036C199.284 120.386 200.573 121.115 201.602 122.143C202.63 123.172 203.359 124.461 203.709 125.872C204.059 127.284 204.018 128.764 203.59 130.154L203.54 130.084Z" fill="#FFFBFB"/>
</svg>
