<svg width="28" height="25" viewBox="0 0 28 25" fill="none" xmlns="http://www.w3.org/2000/svg">
<path d="M27.5298 24.2937C27.3432 24.5167 27.1098 24.696 26.8463 24.8189C26.5828 24.9419 26.2954 25.0054 26.0046 25.005C25.7759 25.0048 25.549 24.9659 25.3333 24.89L15.3384 21.5147C15.2393 21.4813 15.1532 21.4175 15.0922 21.3326C15.0312 21.2476 14.9984 21.1456 14.9984 21.041V12.0041C14.9987 11.867 14.9708 11.7313 14.9165 11.6054C14.8621 11.4795 14.7824 11.3662 14.6824 11.2724C14.5824 11.1786 14.4642 11.1064 14.3351 11.0602C14.206 11.014 14.0688 10.9949 13.932 11.004C13.6749 11.0267 13.4357 11.1456 13.2626 11.3371C13.0894 11.5286 12.995 11.7784 12.9982 12.0366V21.0372C12.9982 21.1418 12.9654 21.2438 12.9044 21.3288C12.8434 21.4138 12.7573 21.4775 12.6581 21.511L2.66328 24.8862C2.27983 25.021 1.86444 25.0357 1.47242 24.9284C1.0804 24.8212 0.730348 24.5971 0.468881 24.2859C0.207413 23.9748 0.0469366 23.5914 0.00881833 23.1868C-0.0292999 22.7822 0.0567494 22.3755 0.255508 22.021L12.2531 1.01951C12.4271 0.710195 12.6803 0.452749 12.9866 0.273588C13.293 0.0944259 13.6415 0 13.9964 0C14.3513 0 14.6998 0.0944259 15.0062 0.273588C15.3125 0.452749 15.5657 0.710195 15.7397 1.01951L27.7423 22.0173C27.9457 22.3724 28.0344 22.7817 27.9964 23.1891C27.9584 23.5966 27.7954 23.9824 27.5298 24.2937Z" fill="black"/>
</svg>
