<svg width="18" height="20" viewBox="0 0 18 20" fill="none" xmlns="http://www.w3.org/2000/svg">
<path d="M15.6066 18.9746C15.421 19.0304 15.2254 19.0448 15.0336 19.0167C14.8418 18.9886 14.6586 18.9187 14.4968 18.812C14.3695 18.7281 14.2573 18.6233 14.165 18.502L9.83554 12.9613C9.79261 12.9064 9.76799 12.8393 9.76515 12.7697C9.76231 12.7 9.7814 12.6312 9.81973 12.5729L13.1299 7.54063C13.1803 7.46439 13.2145 7.37861 13.2303 7.28862C13.2462 7.19862 13.2433 7.10632 13.222 7.01747C13.2007 6.92861 13.1613 6.84508 13.1063 6.77208C13.0513 6.69908 12.9819 6.63816 12.9024 6.59311C12.7509 6.51153 12.5742 6.49021 12.4076 6.5334C12.241 6.57659 12.0969 6.68111 12.0042 6.82604L8.70724 11.8381C8.66892 11.8964 8.6133 11.9412 8.54819 11.9662C8.48309 11.9911 8.41179 11.9951 8.34433 11.9774L1.54214 10.1958C1.27926 10.1303 1.04255 9.98638 0.863523 9.78306C0.6845 9.57974 0.571659 9.32672 0.540026 9.05768C0.508393 8.78864 0.559469 8.51635 0.686453 8.27707C0.813437 8.03779 1.0103 7.84288 1.25084 7.71828L15.6248 0.418156C15.835 0.309652 16.0702 0.25903 16.3065 0.271483C16.5427 0.283937 16.7714 0.359018 16.969 0.489022C17.1666 0.619025 17.3261 0.799271 17.4311 1.01126C17.5361 1.22325 17.5828 1.45935 17.5664 1.69533L16.5588 17.7848C16.542 18.057 16.4415 18.3174 16.2711 18.5304C16.1006 18.7434 15.8686 18.8985 15.6066 18.9746Z" fill="white"/>
</svg>
