<svg width="32" height="32" viewBox="0 0 32 32" fill="none" xmlns="http://www.w3.org/2000/svg">
<g clip-path="url(#clip0_806_2)">
<path d="M30.865 3.44801L24.282 0.281007C23.9097 0.100632 23.4904 0.0407828 23.0825 0.109785C22.6746 0.178787 22.2983 0.37321 22.006 0.666007L9.397 12.171L3.902 8.00401C3.65453 7.81481 3.34849 7.71849 3.03727 7.73183C2.72605 7.74517 2.42938 7.86733 2.199 8.07701L0.439002 9.68101C0.30144 9.80532 0.191389 9.95702 0.115914 10.1264C0.0404395 10.2957 0.00120753 10.479 0.00073671 10.6644C0.000265889 10.8498 0.0385666 11.0333 0.113181 11.203C0.187794 11.3727 0.297073 11.525 0.434002 11.65L5.2 15.999L0.434002 20.348C0.297073 20.473 0.187794 20.6253 0.113181 20.795C0.0385666 20.9647 0.000265889 21.1482 0.00073671 21.3336C0.00120753 21.519 0.0404395 21.7023 0.115914 21.8716C0.191389 22.041 0.30144 22.1927 0.439002 22.317L2.199 23.921C2.42938 24.1307 2.72605 24.2528 3.03727 24.2662C3.34849 24.2795 3.65453 24.1832 3.902 23.994L9.397 19.822L22.012 31.332C22.3033 31.6248 22.6787 31.8193 23.0858 31.8883C23.493 31.9573 23.9115 31.8974 24.283 31.717L30.872 28.545C31.2113 28.382 31.4975 28.1263 31.6975 27.8074C31.8975 27.4884 32.003 27.1194 32.002 26.743V5.24801C32.002 4.48201 31.559 3.77901 30.867 3.44601L30.865 3.44801ZM24.005 23.266L14.432 16L24.005 8.73401V23.266Z" fill="black"/>
</g>
<defs>
<clipPath id="clip0_806_2">
<rect width="32" height="32" fill="white"/>
</clipPath>
</defs>
</svg>
